<svg width="25" height="20" viewBox="0 0 25 20" fill="none" xmlns="http://www.w3.org/2000/svg">
<path d="M2.35287 19.2852C1.61069 19.2852 1.03452 18.709 1.03452 17.9668V15.3984C0.71225 15.0176 0.536469 14.5098 0.536469 13.8848V12.166C0.536469 10.4473 0.839203 9.48047 1.76694 8.30859L2.63608 7.21484C2.99741 5.45703 3.64194 3.61133 3.98373 2.88867C4.52084 1.73633 5.5853 1.0332 6.93295 0.867188C7.63608 0.779297 9.73569 0.720703 12.3333 0.720703C14.931 0.720703 17.0208 0.769531 17.7337 0.867188C19.0814 1.05273 20.1361 1.73633 20.683 2.88867C21.0247 3.61133 21.6693 5.45703 22.0306 7.21484L22.8997 8.30859C23.8275 9.48047 24.1302 10.4473 24.1302 12.166V13.8848C24.1302 14.5098 23.9544 15.0176 23.6322 15.3984V17.9668C23.6322 18.709 23.056 19.2852 22.304 19.2852H21.1322C20.3802 19.2852 19.804 18.709 19.804 17.9668V16.375C17.6556 16.502 14.7259 16.5801 12.3333 16.5801C9.931 16.5801 7.00131 16.502 4.85287 16.375V17.9668C4.85287 18.709 4.2767 19.2852 3.53452 19.2852H2.35287ZM12.3333 14.998C15.683 14.998 19.8431 14.8418 21.4251 14.6562C22.2552 14.5586 22.5677 14.1289 22.5677 13.3867V12.0781C22.5677 10.7598 22.3236 10.1348 21.6302 9.22656L20.5755 7.84961C20.3314 6.52148 19.7162 4.5 19.2962 3.65039C18.9642 2.95703 18.3587 2.54688 17.4798 2.43945C16.8548 2.36133 14.9212 2.27344 12.3333 2.27344C9.74545 2.27344 7.84116 2.35156 7.16733 2.43945C6.31772 2.54688 5.69272 2.94727 5.36069 3.64062C4.9603 4.50977 4.32553 6.54102 4.08139 7.84961L3.0267 9.22656C2.34311 10.1348 2.0892 10.7598 2.0892 12.0781V13.3867C2.0892 14.1289 2.4017 14.5586 3.24155 14.6562C4.82358 14.8418 8.98373 14.998 12.3333 14.998ZM5.40952 6.87305C5.62436 5.93555 6.02475 4.70508 6.30795 4.2168C6.57162 3.72852 6.89389 3.52344 7.47006 3.44531C8.12436 3.35742 9.72592 3.28906 12.3333 3.28906C14.9408 3.28906 16.5326 3.35742 17.1966 3.44531C17.7728 3.52344 18.0853 3.72852 18.3587 4.2168C18.6419 4.70508 19.0423 5.93555 19.2572 6.87305C19.3451 7.27344 19.179 7.45898 18.7494 7.43945C17.3236 7.35156 15.5169 7.26367 12.3333 7.26367C9.14975 7.26367 7.34311 7.35156 5.90756 7.43945C5.48764 7.45898 5.31186 7.27344 5.40952 6.87305ZM5.26303 13.7383C4.3353 13.7383 3.63217 13.0352 3.63217 12.1074C3.63217 11.1699 4.3353 10.4668 5.26303 10.4668C6.20053 10.4668 6.90366 11.1699 6.90366 12.1074C6.90366 13.0352 6.20053 13.7383 5.26303 13.7383ZM19.3939 13.7383C18.4662 13.7383 17.763 13.0352 17.763 12.1074C17.763 11.1699 18.4662 10.4668 19.3939 10.4668C20.3314 10.4668 21.0345 11.1699 21.0345 12.1074C21.0345 13.0352 20.3314 13.7383 19.3939 13.7383ZM9.69662 13.3281C8.9935 13.3281 8.50522 12.8398 8.50522 12.1465C8.50522 11.4531 8.9935 10.9648 9.69662 10.9648H14.9701C15.6634 10.9648 16.1517 11.4531 16.1517 12.1465C16.1517 12.8398 15.6634 13.3281 14.9701 13.3281H9.69662Z" fill="#161FFE"/>
</svg>
